<svg width="16" height="16" viewBox="0 0 16 16" fill="none" xmlns="http://www.w3.org/2000/svg">
<rect width="16" height="16" rx="4" fill="#333333"/>
<path d="M4.5275 10.19L0.8375 7.98C0.6575 7.86667 0.5675 7.71333 0.5675 7.52C0.5675 7.34667 0.6575 7.19667 0.8375 7.07L4.5275 4.85C4.7075 4.75667 4.88083 4.75667 5.0475 4.85C5.21417 4.93667 5.2975 5.07667 5.2975 5.27C5.2975 5.47 5.21417 5.62 5.0475 5.72L1.6775 7.72V7.29L5.0475 9.31C5.21417 9.41667 5.2975 9.56333 5.2975 9.75C5.2975 9.88333 5.25417 9.99667 5.1675 10.09C5.0875 10.1767 4.9875 10.2333 4.8675 10.26C4.7475 10.28 4.63417 10.2567 4.5275 10.19ZM6.42625 11.78C6.28625 11.78 6.17625 11.7233 6.09625 11.61C6.02292 11.5033 6.01625 11.3767 6.07625 11.23L9.21625 3.4C9.24292 3.32667 9.28958 3.27 9.35625 3.23C9.42292 3.19 9.49625 3.17 9.57625 3.17C9.72292 3.17 9.82958 3.23 9.89625 3.35C9.96292 3.46333 9.97292 3.58667 9.92625 3.72L6.78625 11.56C6.75292 11.64 6.70292 11.6967 6.63625 11.73C6.56958 11.7633 6.49958 11.78 6.42625 11.78ZM11.4938 10.19C11.3871 10.2567 11.2738 10.28 11.1538 10.26C11.0338 10.2333 10.9304 10.1767 10.8438 10.09C10.7638 9.99667 10.7238 9.88333 10.7238 9.75C10.7238 9.56333 10.8071 9.41667 10.9738 9.31L14.3438 7.29V7.72L10.9738 5.72C10.8071 5.62 10.7238 5.47 10.7238 5.27C10.7238 5.07667 10.8071 4.93667 10.9738 4.85C11.1404 4.75667 11.3138 4.75667 11.4938 4.85L15.1838 7.07C15.3638 7.19667 15.4538 7.34667 15.4538 7.52C15.4538 7.71333 15.3638 7.86667 15.1838 7.98L11.4938 10.19Z" fill="#D2D904"/>
</svg>
