<svg width="443" height="253" viewBox="0 0 443 253" fill="none" xmlns="http://www.w3.org/2000/svg">
<path d="M117.753 206.176L8.02868 141.269C2.67625 137.94 0 133.437 0 127.759C0 122.668 2.67625 118.262 8.02868 114.542L117.753 49.3413C123.106 46.6001 128.26 46.6001 133.216 49.3413C138.172 51.8867 140.65 55.9985 140.65 61.6766C140.65 67.5506 138.172 71.9561 133.216 74.8931L40.9685 128.966L133.216 180.331C138.172 183.464 140.65 187.771 140.65 193.253C140.65 197.169 139.361 200.498 136.784 203.239C134.405 205.785 131.432 207.449 127.863 208.232C124.295 208.819 120.925 208.134 117.753 206.176Z" fill="url(#paint0_linear_20_56)"/>
<path d="M174.214 252.874C170.051 252.874 166.78 251.21 164.401 247.881C162.22 244.749 162.022 241.028 163.806 236.721L257.176 6.75506C257.969 4.60128 259.357 2.93699 261.339 1.7622C263.322 0.587401 265.502 0 267.881 0C272.242 0 275.414 1.76219 277.397 5.28657C279.379 8.61515 279.676 12.2374 278.289 16.1534L184.919 246.413C183.928 248.762 182.441 250.427 180.458 251.406C178.476 252.385 176.394 252.874 174.214 252.874Z" fill="url(#paint1_linear_20_56)"/>
<path d="M324.899 206.176C321.728 208.134 318.358 208.819 314.789 208.232C311.221 207.449 308.148 205.785 305.571 203.239C303.192 200.498 302.003 197.169 302.003 193.253C302.003 187.771 304.481 183.464 309.437 180.331L401.713 125.7L309.437 74.8931C304.481 71.9561 302.003 67.5506 302.003 61.6766C302.003 55.9985 304.481 51.8867 309.437 49.3413C314.393 46.6001 319.547 46.6001 324.899 49.3413L434.624 114.542C439.976 118.262 442.653 122.668 442.653 127.759C442.653 133.437 439.976 137.94 434.624 141.269L324.899 206.176Z" fill="url(#paint2_linear_20_56)"/>
<defs>
<linearGradient id="paint0_linear_20_56" x1="0" y1="0" x2="443" y2="253" gradientUnits="userSpaceOnUse">
<stop stop-color="#D2D904"/>
<stop offset="1" stop-color="#F8F8F6"/>
</linearGradient>
<linearGradient id="paint1_linear_20_56" x1="0" y1="0" x2="443" y2="253" gradientUnits="userSpaceOnUse">
<stop stop-color="#D2D904"/>
<stop offset="1" stop-color="#F8F8F6"/>
</linearGradient>
<linearGradient id="paint2_linear_20_56" x1="0" y1="0" x2="443" y2="253" gradientUnits="userSpaceOnUse">
<stop stop-color="#D2D904"/>
<stop offset="1" stop-color="#F8F8F6"/>
</linearGradient>
</defs>
</svg>
