<svg xmlns="http://www.w3.org/2000/svg" width="440" height="250" fill="none">
  <path fill="url(#a)" d="M117.048 203.833 7.98056 139.663C2.66022 136.372 0 131.92 0 126.307c0-5.033 2.66022-9.389 7.98056-13.067L117.048 48.7805c5.32-2.71 10.443-2.71 15.369 0 4.927 2.5164 7.39 6.5815 7.39 12.1951 0 5.8072-2.463 10.1626-7.39 13.0662L40.723 127.5l91.694 50.781c4.927 3.097 7.39 7.356 7.39 12.776 0 3.871-1.281 7.162-3.843 9.872-2.364 2.517-5.32 4.162-8.867 4.936-3.547.581-6.897-.096-10.049-2.032Z"/>
  <path fill="url(#b)" d="M173.17 250c-4.138 0-7.39-1.645-9.754-4.936-2.168-3.097-2.365-6.775-.591-11.034l92.81-227.35172c.788-2.1293 2.168-3.77467 4.138-4.93611C261.744.580724 263.911 0 266.276 0c4.335 0 7.488 1.74216 9.458 5.22648 1.971 3.29075 2.266 6.87182.887 10.74332l-92.81 227.6422c-.986 2.323-2.464 3.968-4.434 4.936-1.971.968-4.04 1.452-6.207 1.452Z"/>
  <path fill="url(#c)" d="M322.952 203.833c-3.152 1.936-6.502 2.613-10.049 2.032-3.547-.774-6.601-2.419-9.163-4.936-2.365-2.71-3.547-6.001-3.547-9.872 0-5.42 2.463-9.679 7.39-12.776l91.723-54.01-91.723-50.2292c-4.927-2.9036-7.39-7.259-7.39-13.0662 0-5.6136 2.463-9.6787 7.39-12.1951 4.926-2.71 10.049-2.71 15.369 0L432.02 113.24c5.32 3.678 7.98 8.034 7.98 13.067 0 5.613-2.66 10.065-7.98 13.356l-109.068 64.17Z"/>
  <defs>
    <linearGradient id="a" x1="0" x2="439.168" y1="0" y2="252.175" gradientUnits="userSpaceOnUse">
      <stop stop-color="#D2D904"/>
      <stop offset="1" stop-color="#F8F8F6"/>
    </linearGradient>
    <linearGradient id="b" x1="0" x2="439.168" y1="0" y2="252.175" gradientUnits="userSpaceOnUse">
      <stop stop-color="#D2D904"/>
      <stop offset="1" stop-color="#F8F8F6"/>
    </linearGradient>
    <linearGradient id="c" x1="0" x2="439.168" y1="0" y2="252.175" gradientUnits="userSpaceOnUse">
      <stop stop-color="#D2D904"/>
      <stop offset="1" stop-color="#F8F8F6"/>
    </linearGradient>
  </defs>
</svg>
