<svg xmlns="http://www.w3.org/2000/svg" width="420" height="71" fill="none">
  <path fill="#000" d="M95.6488 70.584v-12.88h7.8002v.5h-7.2402v5.68h6.5202v.5h-6.5202v6.2h-.56ZM106.649 70.584v-12.88h5.12c1.306 0 2.246.3333 2.82 1 .573.6533.86 1.5467.86 2.68 0 1.0267-.247 1.8533-.74 2.48-.48.6267-1.214 1.0133-2.2 1.16.333.1333.573.3133.72.54.16.2133.32.5.48.86l1.78 4.16h-.56l-1.76-4.04c-.147-.3467-.314-.62-.5-.82-.174-.2133-.427-.3667-.76-.46-.32-.0933-.774-.14-1.36-.14h-3.34v5.46h-.56Zm.56-5.96h4.36c1.026 0 1.84-.2467 2.44-.74.6-.5067.9-1.34.9-2.5 0-2.12-1.027-3.18-3.08-3.18h-4.62v6.42ZM124.216 70.784c-1.306 0-2.373-.2667-3.2-.8-.826-.5333-1.44-1.2867-1.84-2.26-.386-.9867-.58-2.14-.58-3.46 0-2.3067.447-4.0067 1.34-5.1.894-1.1067 2.32-1.66 4.28-1.66 1.96 0 3.387.5533 4.28 1.66.894 1.0933 1.34 2.7933 1.34 5.1 0 1.32-.2 2.4733-.6 3.46-.386.9733-.993 1.7267-1.82 2.26-.826.5333-1.893.8-3.2.8Zm0-.5c1.707 0 2.98-.5133 3.82-1.54.84-1.0267 1.26-2.52 1.26-4.48 0-1.5333-.186-2.7533-.56-3.66-.373-.92-.94-1.58-1.7-1.98-.746-.4133-1.686-.62-2.82-.62-1.133 0-2.08.2067-2.84.62-.746.4-1.306 1.06-1.68 1.98-.373.9067-.56 2.1267-.56 3.66 0 1.96.42 3.4533 1.26 4.48.84 1.0267 2.114 1.54 3.82 1.54ZM133.629 70.584v-12.88h.62l8.6 12.12v-12.12h.56v12.88h-.62l-8.6-12.12v12.12h-.56ZM151.438 70.584v-12.38h-4.62v-.5h9.78v.5h-4.6v12.38h-.56ZM159.604 65.904v-.5h7.34v.5h-7.34ZM170.75 70.584v-12.88h8.16v.5h-7.6v5.68h6.9v.5h-6.9v5.7h7.6v.5h-8.16ZM182.512 70.584v-12.88h.62l8.6 12.12v-12.12h.56v12.88h-.62l-8.6-12.12v12.12h-.56ZM196.5 70.584v-12.88h4.66c1.214 0 2.18.2267 2.9.68.734.44 1.26 1.14 1.58 2.1.334.96.5 2.2133.5 3.76 0 1.4533-.16 2.6533-.48 3.6-.306.9333-.826 1.6267-1.56 2.08-.72.44-1.7.66-2.94.66h-4.66Zm.56-.5h3.9c.787 0 1.467-.08 2.04-.24.587-.1733 1.074-.4733 1.46-.9.387-.4267.674-1.02.86-1.78.187-.76.28-1.7333.28-2.92 0-1.5733-.153-2.7933-.46-3.66-.306-.88-.8-1.4933-1.48-1.84-.666-.36-1.566-.54-2.7-.54h-3.9v11.88ZM215.649 70.584v-12.88h4.66c1.213 0 2.18.2267 2.9.68.733.44 1.26 1.14 1.58 2.1.333.96.5 2.2133.5 3.76 0 1.4533-.16 2.6533-.48 3.6-.307.9333-.827 1.6267-1.56 2.08-.72.44-1.7.66-2.94.66h-4.66Zm.56-.5h3.9c.786 0 1.466-.08 2.04-.24.586-.1733 1.073-.4733 1.46-.9.386-.4267.673-1.02.86-1.78.186-.76.28-1.7333.28-2.92 0-1.5733-.154-2.7933-.46-3.66-.307-.88-.8-1.4933-1.48-1.84-.667-.36-1.567-.54-2.7-.54h-3.9v11.88ZM229.09 70.584v-12.88h8.16v.5h-7.6v5.68h6.9v.5h-6.9v5.7h7.6v.5h-8.16ZM245.019 70.584l-4.86-12.88h.58l4.72 12.56 4.72-12.56h.58l-4.84 12.88h-.9ZM254.274 70.584v-12.88h8.16v.5h-7.6v5.68h6.9v.5h-6.9v5.7h7.6v.5h-8.16ZM266.035 70.584v-12.88h.56v12.38h7.4v.5h-7.96ZM281.611 70.784c-1.307 0-2.373-.2667-3.2-.8-.827-.5333-1.44-1.2867-1.84-2.26-.387-.9867-.58-2.14-.58-3.46 0-2.3067.447-4.0067 1.34-5.1.893-1.1067 2.32-1.66 4.28-1.66 1.96 0 3.387.5533 4.28 1.66.893 1.0933 1.34 2.7933 1.34 5.1 0 1.32-.2 2.4733-.6 3.46-.387.9733-.993 1.7267-1.82 2.26-.827.5333-1.893.8-3.2.8Zm0-.5c1.707 0 2.98-.5133 3.82-1.54.84-1.0267 1.26-2.52 1.26-4.48 0-1.5333-.187-2.7533-.56-3.66-.373-.92-.94-1.58-1.7-1.98-.747-.4133-1.687-.62-2.82-.62-1.133 0-2.08.2067-2.84.62-.747.4-1.307 1.06-1.68 1.98-.373.9067-.56 2.1267-.56 3.66 0 1.96.42 3.4533 1.26 4.48.84 1.0267 2.113 1.54 3.82 1.54ZM291.024 70.584v-12.88h4.82c1.386 0 2.393.3533 3.02 1.06.64.6933.96 1.6267.96 2.8 0 1.2-.36 2.1333-1.08 2.8-.72.6667-1.714 1-2.98 1h-4.18v5.22h-.56Zm.56-5.72h4.22c1.146 0 2.013-.2933 2.6-.88.586-.6.88-1.4067.88-2.42 0-1.08-.28-1.9067-.84-2.48-.56-.5867-1.407-.88-2.54-.88h-4.32v6.66ZM303.215 70.584v-12.88h8.16v.5h-7.6v5.68h6.9v.5h-6.9v5.7h7.6v.5h-8.16ZM314.977 70.584v-12.88h5.12c1.307 0 2.247.3333 2.82 1 .573.6533.86 1.5467.86 2.68 0 1.0267-.247 1.8533-.74 2.48-.48.6267-1.213 1.0133-2.2 1.16.333.1333.573.3133.72.54.16.2133.32.5.48.86l1.78 4.16h-.56l-1.76-4.04c-.147-.3467-.313-.62-.5-.82-.173-.2133-.427-.3667-.76-.46-.32-.0933-.773-.14-1.36-.14h-3.34v5.46h-.56Zm.56-5.96h4.36c1.027 0 1.84-.2467 2.44-.74.6-.5067.9-1.34.9-2.5 0-2.12-1.027-3.18-3.08-3.18h-4.62v6.42Z"/>
  <path fill="#333" d="M0 34.584V11.4h12.24c2.328 0 4.08.552 5.256 1.656 1.2 1.104 1.8 2.664 1.8 4.68 0 1.224-.24 2.256-.72 3.096-.456.816-1.068 1.452-1.836 1.908 1.056.384 1.884.948 2.484 1.692.6.744.9 1.86.9 3.348 0 2.208-.648 3.9-1.944 5.076-1.296 1.152-3.156 1.728-5.58 1.728H0Zm5.796-13.752h4.716c1.008 0 1.74-.228 2.196-.684.456-.456.684-1.092.684-1.908 0-.888-.228-1.548-.684-1.98-.456-.456-1.284-.684-2.484-.684H5.796v5.256Zm0 9.612h5.292c1.056 0 1.836-.216 2.34-.648.528-.432.792-1.2.792-2.304 0-.888-.252-1.548-.756-1.98-.504-.456-1.368-.684-2.592-.684H5.796v5.616ZM26.4769 34.584l8.856-23.184h6.264l8.856 23.184h-6.048l-2.088-5.256h-7.74l-2.052 5.256h-6.048Zm8.892-9.54h6.156l-3.096-8.064-3.06 8.064ZM58.7883 34.584V11.4h11.592c2.736 0 4.752.72 6.048 2.16 1.296 1.44 1.944 3.372 1.944 5.796 0 1.56-.396 2.928-1.188 4.104-.792 1.176-1.872 2.052-3.24 2.628.336.264.6.564.792.9.216.312.444.756.684 1.332l2.736 6.264h-6.048l-2.592-5.904c-.216-.504-.492-.864-.828-1.08-.336-.24-.816-.36-1.44-.36h-2.664v7.344h-5.796Zm5.796-11.808h4.284c1.128 0 2.004-.276 2.628-.828.648-.576.972-1.44.972-2.592 0-2.328-1.116-3.492-3.348-3.492h-4.536v6.912ZM84.3862 34.584l8.856-23.184h6.264l8.8558 23.184h-6.048l-2.088-5.256h-7.7398l-2.052 5.256h-6.048Zm8.892-9.54h6.156l-3.096-8.064-3.06 8.064ZM119.003 34.584v-18.72h-6.804V11.4h19.404v4.464h-6.804v18.72h-5.796ZM135.827 34.584l8.856-23.184h6.264l8.856 23.184h-6.048l-2.088-5.256h-7.74l-2.052 5.256h-6.048Zm8.892-9.54h6.156l-3.096-8.064-3.06 8.064Z"/>
  <path fill="#D2D904" d="m191.865 33.696-17.712-10.608c-.864-.544-1.296-1.28-1.296-2.208 0-.832.432-1.552 1.296-2.16l17.712-10.656c.864-.448 1.696-.448 2.496 0 .8.416 1.2 1.088 1.2 2.016 0 .96-.4 1.68-1.2 2.16l-16.176 9.6v-2.064l16.176 9.696c.8.512 1.2 1.216 1.2 2.112 0 .64-.208 1.184-.624 1.632-.384.416-.864.688-1.44.816-.576.096-1.12-.016-1.632-.336ZM200.979 41.328c-.672 0-1.2-.272-1.584-.816-.352-.512-.384-1.12-.096-1.824l15.072-37.584c.128-.351999.352-.623999.672-.815998C215.363.0960007 215.715 0 216.099 0c.704 0 1.216.288 1.536.864.32.544.368 1.136.144 1.776l-15.072 37.632c-.16.384-.4.656-.72.816-.32.16-.656.24-1.008.24ZM225.303 33.696c-.512.32-1.056.432-1.632.336-.576-.128-1.072-.4-1.488-.816-.384-.448-.576-.992-.576-1.632 0-.896.4-1.6 1.2-2.112l16.176-9.696v2.064l-16.176-9.6c-.8-.48-1.2-1.2-1.2-2.16 0-.928.4-1.6 1.2-2.016.8-.448 1.632-.448 2.496 0l17.712 10.656c.864.608 1.296 1.328 1.296 2.16 0 .928-.432 1.664-1.296 2.208l-17.712 10.608Z"/>
  <path fill="#333" d="M258.304 34.584V11.4h11.592c2.736 0 4.752.72 6.048 2.16 1.296 1.44 1.944 3.372 1.944 5.796 0 1.56-.396 2.928-1.188 4.104-.792 1.176-1.872 2.052-3.24 2.628.336.264.6.564.792.9.216.312.444.756.684 1.332l2.736 6.264h-6.048l-2.592-5.904c-.216-.504-.492-.864-.828-1.08-.336-.24-.816-.36-1.44-.36H264.1v7.344h-5.796Zm5.796-11.808h4.284c1.128 0 2.004-.276 2.628-.828.648-.576.972-1.44.972-2.592 0-2.328-1.116-3.492-3.348-3.492H264.1v6.912ZM286.239 34.584V11.4h5.796v23.184h-5.796ZM301.096 34.584V11.4h12.24c2.328 0 4.08.552 5.256 1.656 1.2 1.104 1.8 2.664 1.8 4.68 0 1.224-.24 2.256-.72 3.096-.456.816-1.068 1.452-1.836 1.908 1.056.384 1.884.948 2.484 1.692.6.744.9 1.86.9 3.348 0 2.208-.648 3.9-1.944 5.076-1.296 1.152-3.156 1.728-5.58 1.728h-12.6Zm5.796-13.752h4.716c1.008 0 1.74-.228 2.196-.684.456-.456.684-1.092.684-1.908 0-.888-.228-1.548-.684-1.98-.456-.456-1.284-.684-2.484-.684h-4.428v5.256Zm0 9.612h5.292c1.056 0 1.836-.216 2.34-.648.528-.432.792-1.2.792-2.304 0-.888-.252-1.548-.756-1.98-.504-.456-1.368-.684-2.592-.684h-5.076v5.616ZM329.559 34.584V11.4h17.1v4.464h-11.304v4.86h9.972v4.536h-9.972v4.86h11.304v4.464h-17.1ZM354.822 34.584V11.4h5.796v23.184h-5.796ZM369.679 34.584V11.4h11.592c2.736 0 4.752.72 6.048 2.16 1.296 1.44 1.944 3.372 1.944 5.796 0 1.56-.396 2.928-1.188 4.104-.792 1.176-1.872 2.052-3.24 2.628.336.264.6.564.792.9.216.312.444.756.684 1.332l2.736 6.264h-6.048l-2.592-5.904c-.216-.504-.492-.864-.828-1.08-.336-.24-.816-.36-1.44-.36h-2.664v7.344h-5.796Zm5.796-11.808h4.284c1.128 0 2.004-.276 2.628-.828.648-.576.972-1.44.972-2.592 0-2.328-1.116-3.492-3.348-3.492h-4.536v6.912ZM407.923 34.944c-3.768 0-6.636-.96-8.604-2.88-1.968-1.92-2.952-4.908-2.952-8.964 0-4.296.984-7.38 2.952-9.252 1.968-1.872 4.836-2.808 8.604-2.808 3.768 0 6.636.936 8.604 2.808 1.968 1.872 2.952 4.956 2.952 9.252 0 4.056-.984 7.044-2.952 8.964-1.968 1.92-4.836 2.88-8.604 2.88Zm0-4.932c1.944 0 3.36-.552 4.248-1.656.912-1.128 1.368-2.88 1.368-5.256 0-2.592-.456-4.416-1.368-5.472-.888-1.08-2.304-1.62-4.248-1.62-1.968 0-3.408.54-4.32 1.62-.888 1.056-1.332 2.88-1.332 5.472 0 2.376.444 4.128 1.332 5.256.912 1.104 2.352 1.656 4.32 1.656Z"/>
</svg>
